<svg xmlns="http://www.w3.org/2000/svg" xmlns:xlink="http://www.w3.org/1999/xlink" viewBox="0 0 351.97 351.97"><defs><style>.cls-1{isolation:isolate;}.cls-2{fill:url(#linear-gradient);}.cls-3{opacity:0.5;mix-blend-mode:hard-light;}.cls-4{fill:#fff;}</style><linearGradient id="linear-gradient" x1="175.98" y1="350.53" x2="175.98" y2="-1.43" gradientUnits="userSpaceOnUse"><stop offset="0" stop-color="#da1c5c"/><stop offset="1" stop-color="#243d98"/></linearGradient></defs><title>block-image--Asset 2</title><g class="cls-1"><g id="Layer_2" data-name="Layer 2"><g id="Layer_1-2" data-name="Layer 1"><circle class="cls-2" cx="175.98" cy="175.98" r="175.98"/><g class="cls-3"><path class="cls-4" d="M105.25,83.64c30.43-9.12,61.28-14.7,93-8.14,31.22,6.45,51.69,25.19,60.54,56.08,2.27,7.92,4.66,15.69,10,22.26,1.86,2.29,6.88,18,5.44,21.62-3.89-20.83-13.78-21.66-21.1-21.44-7,.2-13.36,2.71-19.18,6.56-3.31,2.19-5.47,4.88-5.26,9.26.55,11.07,7.86,17,16.43,21.89,7.95,4.52,15.82,3.55,23.18-1.57,6.48-4.5,4.67-12.43,6-18.95,2,6.48,2.44,13.1-.34,19.21a80.18,80.18,0,0,0-3.36,8.6c-3.92,12.06-6.72,15.62-18.34,21.07-4.21,2-3.25,4.64-2.05,7.53,2.63,6.38.59,11.95-2.79,18.49-4.36-3.4-10.21-12.73-11.12,1.74-9.66-10.3-10.48-10.21-13.87.78-8.15-9-8.6-9-15.71.89-6.9-9.68-7.16-9.69-14-.42-6.22-8.24-6.22-8.24-14.15-1.08-1.8-5.46-4.33-10.34-11.22-7.76-.31-3.23.84-5.85,2.76-8.49,7.51-10.32,6.55-13.31-6.26-16.15-12.4-2.74-24.55-5.83-35.5-12.55-11.3-6.93-12.15-19.64-1.85-27.91,10.56-8.47,13.93-29.71,5.91-40.23a175.65,175.65,0,0,0-16.81-19.22C106.29,106.69,101.54,96.63,105.25,83.64ZM159.9,206.58c22.67,2,38.64-6.85,46.82-28.37a40.44,40.44,0,0,1,1.88-3.64c6.14-12.13,4.65-16.21-8.08-20.43-3.83-1.27-8.16-2.39-12-1.88-16.83,2.21-32.66,7.8-46.46,17.74-13.25,9.54-10.27,28.57,5,34.89A23.44,23.44,0,0,0,159.9,206.58Zm67.68,15.55c9.29.92,11.52-4.52,12.24-11.18,1-9.33-5-20.12-11.25-20.8-6.52-.7-23,16.26-21.83,24.45C208.93,229.37,222.38,216,227.58,222.13Z"/><path class="cls-4" d="M112.49,82c-3.71,13-2.1,24.65,7.14,33.67a175.74,175.74,0,0,1,16.82,19.22c8,10.52,4.65,31.76-5.91,40.23-10.3,8.27-9.46,21,1.85,27.91,10.94,6.72,23.09,9.81,35.49,12.55,12.81,2.84,13.78,5.83,6.26,16.15-1.92,2.64-3.07,5.26-2.75,8.49l0-.21-2.34,1.7c-9.52-3.93-15.43-12.15-22.08-19.29-6.47-7-13.28-10.4-22.6-6.93l-8.82-.23c-5.78-4.22-11.39-8.71-17.4-12.57-3.76-2.41-8-2.74-6.42,3.78,1.34,5.56-.94,5.32-4.49,3.62-5.25-2.51-10.2-5.32-12.94-11a201.51,201.51,0,0,1-18.25-61.55C53.7,119.07,65.94,107,78.44,96.18,87.08,88.72,101.19,83.79,112.49,82Z"/><path class="cls-4" d="M115.56,215.41c3,.08,2.69-6.58,15.39-1.53-6.27.09-7,9.14-2.81,9.69,8.16,1.1,13.11,6.74,18.3,12.07A88.77,88.77,0,0,0,164.88,250c3.17,1.89,7.13,3.49,7.72,7.6,1,7,2.84,7.35,9.15,3.75,6.13-3.49,1.76,5.52,5.2,6.52.76,7.15,7.76,13.09,4.11,21.09-12.68-2.77-28.21-9.55-46.17-19.31-6.5-3.53-8.78-10.38-10.56-17A105.78,105.78,0,0,0,115.56,215.41Z"/><path class="cls-4" d="M185.41,287.42c3.65-8-3.34-13.94-4.1-21.09,5.8,1.47,7.51-3.26,10.32-7.31,3.89,2.21,1.87,9.6,7.76,9.28,5.29-.29,3.55-7.12,7.61-8.73,7.36,11.29,8.42,11.25,15.2-.78,3.89,1.44,2.83,8.34,8.25,7.86,5.78-.52,2.67-7,5.63-9.53,4.48,1,2.7,8.82,8.53,7.42,4.19-1,1-5.66,3.31-7.78,5.12,11.42.22,26.25-11,29.17C220,290.33,202.75,292.88,185.41,287.42Z"/><path class="cls-4" d="M165,241.75l2.35-1.7Z"/></g></g></g></g></svg>