<svg xmlns="http://www.w3.org/2000/svg" viewBox="0 0 220.13 217.88"><defs><style>.cls-1{fill:#fff;}</style></defs><title>white-skull-Asset 4</title><g id="Layer_2" data-name="Layer 2"><g id="Layer_1-2" data-name="Layer 1"><path class="cls-1" d="M49.47,11c30.43-9.12,61.29-14.7,93-8.15C173.65,9.31,194.12,28,203,58.94c2.26,7.91,4.66,15.69,10,22.26,1.86,2.29,6.89,18,5.44,21.61-3.89-20.82-13.78-21.65-21.1-21.44-7,.21-13.35,2.71-19.18,6.56-3.31,2.19-5.47,4.89-5.25,9.26.54,11.08,7.85,17,16.42,21.9,7.95,4.52,15.83,3.55,23.19-1.57,6.47-4.5,4.66-12.43,6-19,2,6.48,2.44,13.11-.33,19.21a81.08,81.08,0,0,0-3.37,8.6c-3.92,12.07-6.72,15.63-18.34,21.07-4.21,2-3.25,4.64-2.05,7.54,2.64,6.37.6,12-2.79,18.49-4.36-3.4-10.21-12.73-11.11,1.74-9.67-10.3-10.48-10.22-13.88.77-8.15-9-8.59-9-15.71.9-6.9-9.68-7.16-9.69-14-.42-6.22-8.24-6.22-8.24-14.14-1.08-1.81-5.46-4.33-10.34-11.22-7.76-.32-3.23.83-5.86,2.75-8.49,7.51-10.32,6.55-13.32-6.26-16.15-12.4-2.74-24.55-5.84-35.5-12.55-11.3-6.93-12.15-19.64-1.84-27.91,10.55-8.47,13.92-29.72,5.9-40.24A175.41,175.41,0,0,0,59.75,43.07C50.51,34.05,45.77,24,49.47,11Zm54.65,122.94c22.67,2,38.64-6.85,46.82-28.37.49-1.27,1.27-2.42,1.88-3.64,6.14-12.13,4.66-16.21-8.08-20.44-3.83-1.26-8.16-2.38-12-1.87-16.83,2.21-32.67,7.8-46.47,17.74C73,106.9,76,125.93,91.26,132.25A23.44,23.44,0,0,0,104.12,133.94Zm67.68,15.54c9.29.93,11.52-4.51,12.24-11.17,1-9.33-5-20.13-11.25-20.8-6.52-.71-23,16.26-21.82,24.45C153.15,156.73,166.6,143.31,171.8,149.48Z"/><path class="cls-1" d="M56.71,9.4c-3.71,13-2.1,24.65,7.14,33.67A175.5,175.5,0,0,1,80.67,62.28c8,10.52,4.65,31.77-5.91,40.24-10.3,8.27-9.45,21,1.85,27.91,10.94,6.71,23.09,9.81,35.5,12.55,12.8,2.83,13.77,5.83,6.26,16.15-1.92,2.63-3.07,5.26-2.76,8.49l0-.21-2.34,1.7c-9.52-3.94-15.43-12.16-22.08-19.29-6.47-6.95-13.28-10.4-22.59-6.93l-8.83-.23C54,138.44,48.41,134,42.4,130.09c-3.76-2.42-8-2.75-6.42,3.78,1.34,5.56-.93,5.32-4.49,3.62-5.24-2.52-10.19-5.32-12.94-11.05A201.59,201.59,0,0,1,.3,64.89c-2.38-18.46,9.86-30.55,22.37-41.35C31.3,16.08,45.41,11.15,56.71,9.4Z"/><path class="cls-1" d="M59.79,142.77c2.94.08,2.68-6.58,15.38-1.54-6.27.1-7,9.14-2.81,9.7,8.16,1.09,13.11,6.74,18.3,12.07a88.77,88.77,0,0,0,18.44,14.36c3.17,1.88,7.14,3.49,7.73,7.6,1,7,2.84,7.35,9.14,3.75,6.13-3.49,1.76,5.52,5.2,6.52.77,7.15,7.76,13.08,4.11,21.09-12.68-2.78-28.21-9.55-46.17-19.31-6.5-3.54-8.77-10.39-10.56-17A105.76,105.76,0,0,0,59.79,142.77Z"/><path class="cls-1" d="M129.64,214.78c3.65-8-3.35-13.94-4.11-21.09,5.8,1.46,7.51-3.27,10.32-7.31,3.89,2.21,1.87,9.6,7.76,9.28,5.29-.29,3.55-7.12,7.61-8.73,7.37,11.29,8.42,11.25,15.2-.78,3.89,1.44,2.83,8.33,8.25,7.85,5.78-.51,2.68-7,5.63-9.52,4.48,1,2.7,8.82,8.53,7.41,4.2-1,1-5.65,3.31-7.77,5.12,11.42.23,26.25-11,29.17C164.26,217.69,147,220.24,129.64,214.78Z"/><path class="cls-1" d="M109.19,169.11l2.35-1.7Z"/></g></g></svg>